<svg width="36" height="36" viewBox="0 0 36 36" fill="none" xmlns="http://www.w3.org/2000/svg">
<path d="M0 18C0 8.05888 8.05888 0 18 0C27.9411 0 36 8.05888 36 18C36 27.9411 27.9411 36 18 36C8.05888 36 0 27.9411 0 18Z" fill="#F0F1F3"/>
<path d="M17.8669 9.25C15.4667 9.25 13.5363 11.1952 13.5363 13.5861C13.5363 15.9268 15.379 17.8353 17.7046 17.9136C17.7357 17.9147 17.7668 17.9138 17.7978 17.911C17.8437 17.9068 17.8924 17.9074 17.9212 17.9103C17.9544 17.9137 17.9878 17.9148 18.0212 17.9136C20.3473 17.8353 22.1878 15.927 22.1976 13.5892L22.1976 13.5861C22.1976 11.1941 20.258 9.25 17.8669 9.25Z" fill="#758195"/>
<path d="M22.4533 19.521C21.1988 18.6819 19.5832 18.2858 18.006 18.2858C16.4287 18.2858 14.8102 18.682 13.5488 19.5196L13.5461 19.5214C12.4148 20.2799 11.75 21.3517 11.75 22.5179C11.75 23.6843 12.415 24.7544 13.547 25.509C14.805 26.3517 16.4223 26.75 18 26.75C19.578 26.75 21.1957 26.3515 22.4538 25.5085C23.5851 24.75 24.25 23.6781 24.25 22.5119C24.25 21.3456 23.5851 20.2755 22.4533 19.521Z" fill="#758195"/>
</svg>
