<svg width="80" height="80" viewBox="0 0 80 80" fill="none" xmlns="http://www.w3.org/2000/svg">
<path fill-rule="evenodd" clip-rule="evenodd" d="M5 40C5 20.7431 20.7431 5 40 5C59.2569 5 75 20.7431 75 40C75 59.2568 59.2569 75 40 75C20.7431 75 5 59.2568 5 40ZM55.7232 28.8246C56.8937 29.9972 56.8921 31.8967 55.7194 33.0672L37.5754 51.1792C36.4036 52.349 34.5055 52.3482 33.3347 51.1774L24.2787 42.1214C23.1071 40.9498 23.1071 39.0503 24.2787 37.8787C25.4503 36.7071 27.3497 36.7071 28.5213 37.8787L35.4579 44.8153L51.4806 28.8208C52.6532 27.6503 54.5527 27.652 55.7232 28.8246Z" fill="#23A06B"/>
</svg>
