<svg xmlns="http://www.w3.org/2000/svg" viewBox="0 0 140 136" fill="none">
  <!-- Shadow -->
  <ellipse cx="70" cy="122" rx="42" ry="8" fill="#00000014"/>

  <!-- Bottom coin stack -->
  <ellipse cx="70" cy="104" rx="42" ry="14" fill="#B8740A"/>
  <rect x="28" y="88" width="84" height="16" fill="#E8920E"/>
  <ellipse cx="70" cy="88" rx="42" ry="14" fill="#F5B429"/>
  <ellipse cx="70" cy="88" rx="36" ry="10" fill="#FDCB4A"/>
  <text x="70" y="93" text-anchor="middle" font-family="serif" font-size="13" font-weight="700" fill="#D4900A">$</text>

  <!-- Middle coin stack -->
  <ellipse cx="58" cy="72" rx="36" ry="12" fill="#B8740A"/>
  <rect x="22" y="58" width="72" height="14" fill="#E8920E"/>
  <ellipse cx="58" cy="58" rx="36" ry="12" fill="#F5B429"/>
  <ellipse cx="58" cy="58" rx="30" ry="8" fill="#FDCB4A"/>
  <text x="58" y="62" text-anchor="middle" font-family="serif" font-size="11" font-weight="700" fill="#D4900A">$</text>

  <!-- Floating top coin (tilted) -->
  <ellipse cx="86" cy="30" rx="28" ry="9" fill="#B8740A" transform="rotate(-15 86 30)"/>
  <ellipse cx="86" cy="26" rx="28" ry="9" fill="#F5B429" transform="rotate(-15 86 26)"/>
  <ellipse cx="86" cy="26" rx="22" ry="6" fill="#FDCB4A" transform="rotate(-15 86 26)"/>

  <!-- Sparkles -->
  <circle cx="110" cy="14" r="2.5" fill="#FDE68A"/>
  <circle cx="24" cy="40" r="2" fill="#FDE68A"/>
  <circle cx="118" cy="52" r="1.5" fill="#FDE68A"/>
</svg>
