<svg width="78" height="24" viewBox="0 0 78 24" fill="none" xmlns="http://www.w3.org/2000/svg">
<g clip-path="url(#clip0_12_1227)">
<path d="M70.0097 8.98584H72.2993V15.3299L74.6207 12.2612H77.3237V12.4043L74.4458 15.95L77.7689 19.925V20.0999H75.0182L72.2993 16.6496V20.0999H70.0097V8.98584Z" fill="#758195"/>
<path d="M64.438 12.0704C65.7524 12.0704 66.7435 12.3195 67.4113 12.8177C68.0897 13.3053 68.4289 14.0897 68.4289 15.1709V20.0999H66.2347C66.2347 19.6759 66.2347 18.6689 66.2347 18.6689H66.187C65.975 19.1459 65.6305 19.5275 65.1535 19.8137C64.6765 20.0999 64.1306 20.243 63.5158 20.243C62.7102 20.243 62.0424 20.0151 61.5124 19.5593C60.9824 19.0929 60.7174 18.4728 60.7174 17.699C60.7174 16.8828 61.0089 16.2468 61.5919 15.791C62.1855 15.3352 62.9487 15.1073 63.8815 15.1073C64.6977 15.1073 65.3814 15.2451 65.9326 15.5207V15.3617C65.9326 14.4289 65.3284 13.9625 64.12 13.9625C63.3992 13.9625 62.6042 14.1109 61.735 14.4077L61.2739 12.6746C62.2915 12.2718 63.3462 12.0704 64.438 12.0704ZM64.3108 18.3191C64.7454 18.3191 65.1164 18.2025 65.4238 17.9693C65.7312 17.7361 65.9167 17.4128 65.9803 16.9994C65.4927 16.745 64.968 16.6178 64.4062 16.6178C64.0352 16.6178 63.7384 16.692 63.5158 16.8404C63.3038 16.9888 63.1978 17.2061 63.1978 17.4923C63.1978 17.7573 63.3038 17.964 63.5158 18.1124C63.7278 18.2502 63.9928 18.3191 64.3108 18.3191Z" fill="#758195"/>
<path d="M55.6918 10.0988H57.9814V12.293H59.9689V14.201H57.9655V17.1584C57.9655 17.858 58.2623 18.2078 58.8559 18.2078C59.2375 18.2078 59.5555 18.1442 59.8099 18.017L60.3346 19.925C59.8152 20.1264 59.264 20.243 58.681 20.2748C57.7588 20.3172 57.0274 20.0999 56.4868 19.6229C55.9568 19.1353 55.6918 18.3138 55.6918 17.1584V14.201H54.2926V12.293H55.6918V10.0988Z" fill="#758195"/>
<path d="M53.3331 20.0999H51.0276V15.95C51.0276 14.731 50.487 14.1215 49.4058 14.1215C48.8864 14.1109 48.4571 14.2964 48.1179 14.678C47.7893 15.0596 47.625 15.5154 47.625 16.0454V20.0999H45.3672V12.2453H47.5137V13.247C48.1391 12.4308 48.9871 12.0333 50.0577 12.0545C52.2413 12.0545 53.3331 13.3477 53.3331 15.9341V20.0999Z" fill="#758195"/>
<path d="M39.8722 20.2748C38.5684 20.2748 37.5243 19.8985 36.7399 19.1459C35.9661 18.3827 35.5792 17.3969 35.5792 16.1885C35.5792 14.9907 35.9714 14.0049 36.7558 13.2311C37.5508 12.4573 38.5896 12.0704 39.8722 12.0704C41.1654 12.0704 42.2042 12.4573 42.9886 13.2311C43.7836 14.0049 44.1811 14.9907 44.1811 16.1885C44.1811 17.3969 43.7889 18.3827 43.0045 19.1459C42.2307 19.8985 41.1866 20.2748 39.8722 20.2748ZM39.8722 18.2396C40.5294 18.2396 41.0223 18.0435 41.3509 17.6513C41.6901 17.2485 41.8597 16.7609 41.8597 16.1885C41.8597 15.6373 41.6901 15.155 41.3509 14.7416C41.0117 14.3282 40.5188 14.1215 39.8722 14.1215C39.2362 14.1215 38.7486 14.3282 38.4094 14.7416C38.0702 15.155 37.9006 15.6373 37.9006 16.1885C37.9006 16.7397 38.0649 17.222 38.3935 17.6354C38.7327 18.0382 39.2256 18.2396 39.8722 18.2396Z" fill="#758195"/>
<path d="M29.9541 18.2079C30.5159 18.2079 31.0088 18.0277 31.4328 17.6673C31.8568 17.3069 32.0688 16.814 32.0688 16.1886C32.0688 15.4996 31.8621 14.9908 31.4487 14.6622C31.0353 14.3336 30.5371 14.1693 29.9541 14.1693C29.3605 14.1693 28.8888 14.3601 28.539 14.7417C28.1998 15.1233 28.0302 15.6056 28.0302 16.1886C28.0302 16.7822 28.2051 17.2698 28.5549 17.6514C28.9047 18.0224 29.3711 18.2079 29.9541 18.2079ZM34.4061 23.5662H32.1006V19.1619C31.4964 19.9039 30.6749 20.2749 29.6361 20.2749C28.4701 20.2749 27.5267 19.9092 26.8059 19.1778C26.0851 18.4358 25.7247 17.4394 25.7247 16.1886C25.7247 14.9696 26.0798 13.9891 26.79 13.2471C27.5108 12.4945 28.4489 12.1182 29.6043 12.1182C30.7491 12.1182 31.6183 12.4998 32.2119 13.263V12.2613H34.4061V23.5662Z" fill="#758195"/>
<path d="M54.7305 2.14799V6.89999H53.3481V2.14799H54.7305ZM53.2521 0.899993C53.2521 1.14319 53.3321 1.33519 53.4921 1.47599C53.6585 1.61679 53.8409 1.68719 54.0393 1.68719C54.2377 1.68719 54.4169 1.61679 54.5769 1.47599C54.7433 1.33519 54.8265 1.14319 54.8265 0.899993C54.8265 0.656793 54.7433 0.464793 54.5769 0.323993C54.4169 0.183193 54.2377 0.112793 54.0393 0.112793C53.8409 0.112793 53.6585 0.183193 53.4921 0.323993C53.3321 0.464793 53.2521 0.656793 53.2521 0.899993Z" fill="#758195"/>
<path d="M49.2888 2.1672H50.6808V2.6856C50.9816 2.2632 51.404 2.052 51.948 2.052C52.396 2.052 52.7832 2.196 53.1096 2.484L52.5336 3.5784C52.3096 3.4184 52.0568 3.3384 51.7752 3.3384C51.4616 3.3384 51.1992 3.4376 50.988 3.636C50.7768 3.828 50.6712 4.0936 50.6712 4.4328V6.9H49.2888V2.1672Z" fill="#758195"/>
<path d="M46.0436 2.052C46.8372 2.052 47.4356 2.2024 47.8388 2.5032C48.2484 2.7976 48.4532 3.2712 48.4532 3.924V6.9H47.1284C47.1284 6.644 47.1284 6.036 47.1284 6.036H47.0996C46.9716 6.324 46.7636 6.5544 46.4756 6.7272C46.1876 6.9 45.858 6.9864 45.4868 6.9864C45.0004 6.9864 44.5972 6.8488 44.2772 6.5736C43.9572 6.292 43.7972 5.9176 43.7972 5.4504C43.7972 4.9576 43.9732 4.5736 44.3252 4.2984C44.6836 4.0232 45.1444 3.8856 45.7076 3.8856C46.2004 3.8856 46.6132 3.9688 46.946 4.1352V4.0392C46.946 3.476 46.5812 3.1944 45.8516 3.1944C45.4164 3.1944 44.9364 3.284 44.4116 3.4632L44.1332 2.4168C44.7476 2.1736 45.3844 2.052 46.0436 2.052ZM45.9668 5.8248C46.2292 5.8248 46.4532 5.7544 46.6388 5.6136C46.8244 5.4728 46.9364 5.2776 46.9748 5.028C46.6804 4.8744 46.3636 4.7976 46.0244 4.7976C45.8004 4.7976 45.6212 4.8424 45.4868 4.932C45.3588 5.0216 45.2948 5.1528 45.2948 5.3256C45.2948 5.4856 45.3588 5.6104 45.4868 5.7C45.6148 5.7832 45.7748 5.8248 45.9668 5.8248Z" fill="#758195"/>
<path d="M39.145 0.189575H40.5274V4.01998L41.929 2.16718H43.561V2.25358L41.8234 4.39438L43.8298 6.79438V6.89998H42.169L40.5274 4.81678V6.89998H39.145V0.189575Z" fill="#758195"/>
<path d="M38.6064 4.3656C38.6064 4.5704 38.5872 4.7688 38.5488 4.9608H35.2272C35.2656 5.236 35.4 5.4536 35.6304 5.6136C35.8608 5.7672 36.12 5.844 36.408 5.844C36.8944 5.844 37.3232 5.6968 37.6944 5.4024L38.3376 6.2952C37.8448 6.7688 37.176 7.0056 36.3312 7.0056C35.5632 7.0056 34.9328 6.7944 34.44 6.372C33.9536 5.9432 33.7104 5.332 33.7104 4.5384C33.7104 3.7576 33.96 3.1496 34.4592 2.7144C34.9648 2.2728 35.5696 2.052 36.2736 2.052C36.9648 2.052 37.5248 2.2568 37.9536 2.6664C38.3888 3.0696 38.6064 3.636 38.6064 4.3656ZM36.9168 3.4248C36.7376 3.2648 36.5104 3.1848 36.2352 3.1848C35.96 3.1848 35.7296 3.2648 35.544 3.4248C35.3584 3.5784 35.2528 3.8056 35.2272 4.1064H37.176C37.1824 3.8056 37.096 3.5784 36.9168 3.4248Z" fill="#758195"/>
<path d="M30.2016 6.90002H28.8384V4.35602C28.8384 3.66482 28.5664 3.31922 28.0224 3.31922C27.76 3.31922 27.552 3.42162 27.3984 3.62642C27.2448 3.83122 27.168 4.07762 27.168 4.36562V6.90002H25.7856V2.15762H27.0912V2.69522C27.3344 2.26642 27.7504 2.05202 28.3392 2.05202C28.9984 2.05202 29.4592 2.34642 29.7216 2.93522C29.9328 2.61522 30.16 2.38802 30.4032 2.25362C30.6464 2.11282 30.944 2.04242 31.296 2.04242C31.8592 2.04242 32.3136 2.21522 32.6592 2.56082C33.0112 2.90642 33.1872 3.48882 33.1872 4.30802V6.90002H31.7952V4.33682C31.7952 3.67762 31.5552 3.34802 31.0752 3.34802C30.8128 3.34802 30.6016 3.44722 30.4416 3.64562C30.2816 3.83762 30.2016 4.07442 30.2016 4.35602V6.90002Z" fill="#758195"/>
<path d="M5.6375 10.2C5.6375 12.7165 7.68432 14.7633 10.2008 14.7633L16.9438 14.7641C18.1456 14.7641 19.1242 15.7427 19.1242 16.9446C19.1242 18.1464 18.1464 19.125 16.9438 19.125H10.2C5.27903 19.125 1.27502 15.121 1.27502 10.2C1.27502 5.27903 5.27903 1.27502 10.2 1.27502C12.5749 1.27502 14.8098 2.19681 16.4933 3.87155C18.176 5.54549 19.1106 7.77393 19.125 10.1472V10.6577C19.125 11.8596 18.1464 12.8382 16.9446 12.8382C15.7427 12.8382 14.7641 11.8604 14.7641 10.6577V10.2C14.7641 7.68352 12.7173 5.6367 10.2008 5.6367C7.68432 5.6367 5.6375 7.68352 5.6375 10.2Z" fill="#758195"/>
</g>
<defs>
<clipPath id="clip0_12_1227">
<rect width="78" height="24" fill="white"/>
</clipPath>
</defs>
</svg>
