<svg width="20" height="20" viewBox="0 0 20 20" fill="none" xmlns="http://www.w3.org/2000/svg">
<path fill-rule="evenodd" clip-rule="evenodd" d="M1.66443 16.5832C2.31319 17.6838 3.60035 18.25 5.15193 18.25H14.8493C16.3976 18.25 17.6839 17.6913 18.3334 16.5918C18.9835 15.4914 18.8493 14.0965 18.0966 12.7448L13.248 4.0527C12.4615 2.64078 11.3141 1.75 10.0006 1.75C8.68712 1.75 7.53942 2.64127 6.753 4.05317L1.9043 12.7373C1.1522 14.088 1.01543 15.4823 1.66443 16.5832ZM9.2531 11.25C9.2531 11.6642 9.58889 12 10.0031 12C10.4173 12 10.7531 11.6642 10.7531 11.25V7.25C10.7531 6.83579 10.4173 6.5 10.0031 6.5C9.58889 6.5 9.2531 6.83579 9.2531 7.25V11.25ZM9.99993 13C9.44764 13 8.99993 13.4477 8.99993 14C8.99993 14.5523 9.44764 15 9.99993 15C10.5522 15 10.9999 14.5523 10.9999 14C10.9999 13.4477 10.5522 13 9.99993 13Z" fill="#E46910"/>
</svg>
